<svg viewBox="0 0 97 218.02"><defs></defs><g id="string"><path class="cls-1" d="M50.24,119.5c-.46,23.66,1.75,39.64,3.46,48.24,.93,4.7-.4,9.57-3.61,13.05-6.82,7.41-17.45,21.16-15.94,33.55l-.15,3.66"/></g><g id="balloon"><path class="cls-3 balloon" d="M97,59.5c0,29.86-17.93,54.59-41.31,58.85l-1.69,13.65-4-1-4,1s-1.93,0-2-13.26c-.07,0-.14-.01-.21-.02C19.21,115.82,0,90.41,0,59.5,0,26.64,21.71,0,48.5,0s48.5,26.64,48.5,59.5Z"/></g><g id="highlight"><path class="cls-2 highlight" d="M82.13,24.19c6.47,9.29,8.99,18.72,5.64,21.05s-7.7-7.45-17.78-12.6c-12.99-6.64-8.99-18.72-5.64-21.05s11.32,3.31,17.78,12.6Z"/></g></svg>