<?xml version="1.0" encoding="utf-8"?>
<!-- Generator: Adobe Illustrator 26.5.0, SVG Export Plug-In . SVG Version: 6.00 Build 0)  -->
<svg version="1.1" id="Layer_1" xmlns="http://www.w3.org/2000/svg" xmlns:xlink="http://www.w3.org/1999/xlink" x="0px" y="0px"
	 viewBox="0 0 97 218" style="enable-background:new 0 0 97 218;" xml:space="preserve">
<style type="text/css">
	.st0{fill:none;stroke:#000000;stroke-miterlimit:10;}
	.st1{fill:#FF0000;}
	.st2{fill:#F15A24;}
</style>
<g id="string">
	<path class="st0" d="M50.2,119.5c-0.2,10-2.3,17-1.7,24.3c0.7,9.9,1.5,10.7-5.2,18.4c-6.4,10.4,19.4,6.5,9.1,24.2
		c-5.9,6.4-7.3,10.4-3.2,18.6c1.5,3,2.3,6.2,2.4,9.5l0.1,3.5"/>
</g>
<g id="balloon">
	<path class="st1" d="M97,59.5c0,29.9-17.9,54.6-41.3,58.8L54,132l-4-1l-4,1c0,0-1.9,0-2-13.3c-0.1,0-0.1,0-0.2,0 C19.2,115.8,0,90.4,0,59.5C0,26.6,21.7,0,48.5,0S97,26.6,97,59.5z"/>
</g>
<g id="highlight">
	<path class="st2" d="M82.1,24.2c6.5,9.3,9,18.7,5.6,21S80.1,37.8,70,32.6c-13-6.6-9-18.7-5.6-21S75.7,14.9,82.1,24.2z"/>
</g>
</svg>
